<?xml version="1.0" encoding="utf-8"?><!-- Uploaded to: SVG Repo, www.svgrepo.com, Generator: SVG Repo Mixer Tools -->
<svg width="800px" height="800px" viewBox="-0.5 0 25 25" fill="none" xmlns="http://www.w3.org/2000/svg">
<path d="M17.43 20.212H6.37C3.95 20.212 2 18.192 2 15.682C2 13.192 3.95 11.152 6.37 11.152C6.89 11.152 7.37999 11.242 7.82999 11.412C8.08999 11.512 8.37999 11.412 8.51999 11.172C9.25999 9.942 10.58 9.12201 12.09 9.12201C14.11 9.12201 15.78 10.582 16.19 12.532C16.25 12.802 16.47 12.942 16.74 12.882C16.96 12.832 17.19 12.812 17.43 12.812C19.41 12.812 21 14.472 21 16.522C21.01 18.552 19.41 20.212 17.43 20.212Z" stroke="#0F0F0F" stroke-miterlimit="10" stroke-linecap="round" stroke-linejoin="round"/>
<path d="M17.25 9.312C17.78 8.402 17.68 7.21202 16.95 6.37202C16.02 5.31202 14.41 5.20201 13.35 6.13201C13.03 6.41201 12.81 6.74202 12.66 7.09202" stroke="#0F0F0F" stroke-miterlimit="10" stroke-linecap="round" stroke-linejoin="round"/>
</svg>